<svg width="48" height="49" viewBox="0 0 48 49" fill="none" xmlns="http://www.w3.org/2000/svg">
<path d="M30.1903 48.261H17.0164C5.09393 48.261 0 43.167 0 31.2446V18.0706C0 6.1482 5.09393 1.05427 17.0164 1.05427H21.4077C22.3079 1.05427 23.0544 1.8008 23.0544 2.70102C23.0544 3.60124 22.3079 4.34776 21.4077 4.34776H17.0164C6.89437 4.34776 3.29349 7.94864 3.29349 18.0706V31.2446C3.29349 41.3666 6.89437 44.9675 17.0164 44.9675H30.1903C40.3123 44.9675 43.9132 41.3666 43.9132 31.2446V26.8533C43.9132 25.9531 44.6597 25.2065 45.5599 25.2065C46.4602 25.2065 47.2067 25.9531 47.2067 26.8533V31.2446C47.2067 43.167 42.1128 48.261 30.1903 48.261Z" fill="#292D32"/>
<path d="M15.9171 37.1511C14.5778 37.1511 13.3482 36.6681 12.448 35.7898C11.3721 34.714 10.911 33.155 11.1525 31.5083L12.0967 24.8994C12.2723 23.6259 13.1067 21.9791 14.0069 21.0789L31.3086 3.77702C35.6779 -0.592341 40.1132 -0.592341 44.4825 3.77702C46.8758 6.17029 47.9517 8.60747 47.7321 11.0447C47.5345 13.0207 46.4806 14.9529 44.4825 16.929L27.1807 34.2309C26.2805 35.1311 24.6338 35.9655 23.3603 36.1411L16.7515 37.0853C16.466 37.1511 16.1806 37.1511 15.9171 37.1511ZM33.636 6.10442L16.3343 23.4063C15.9171 23.8235 15.4341 24.7896 15.3462 25.3604L14.4021 31.9694C14.3143 32.6061 14.446 33.1331 14.7754 33.4624C15.1047 33.7918 15.6317 33.9235 16.2684 33.8357L22.8772 32.8916C23.4481 32.8037 24.4362 32.3207 24.8314 31.9035L42.1332 14.6016C43.5604 13.1744 44.3069 11.901 44.4167 10.7153C44.5484 9.28813 43.8019 7.77312 42.1332 6.08247C38.6201 2.56941 36.2049 3.55746 33.636 6.10442Z" fill="#292D32"/>
<path d="M40.8384 19.8925C40.6847 19.8925 40.531 19.8706 40.3993 19.8267C34.6247 18.2019 30.0357 13.613 28.411 7.83838C28.1694 6.96011 28.6744 6.05989 29.5527 5.79642C30.431 5.55489 31.3312 6.05989 31.5727 6.93816C32.8901 11.6149 36.6008 15.3256 41.2775 16.643C42.1558 16.8845 42.6608 17.8067 42.4193 18.6849C42.2217 19.4315 41.563 19.8925 40.8384 19.8925Z" fill="#292D32"/>
</svg>
